HIERARCHY
ROOT Hips
{
	OFFSET 0.000000 97.167313 0.000000
	CHANNELS 6 Xposition Yposition Zposition Xrotation Yrotation Zrotation
	JOINT Spine
	{
		OFFSET 0.000000 13.784798 0.064400
		CHANNELS 3 Xrotation Yrotation Zrotation
		JOINT Spine1
		{
			OFFSET 0.000000 12.037903 0.404700
			CHANNELS 3 Xrotation Yrotation Zrotation
			JOINT Spine2
			{
				OFFSET 0.000000 17.795601 0.420200
				CHANNELS 3 Xrotation Yrotation Zrotation
				JOINT Neck
				{
					OFFSET 0.000000 39.131302 11.954600
					CHANNELS 3 Xrotation Yrotation Zrotation
					JOINT Head
					{
						OFFSET 0.000000 14.456192 15.627699
						CHANNELS 3 Xrotation Yrotation Zrotation
						JOINT HeadTop_End
						{
							OFFSET 0.000000 15.703506 7.603401
							CHANNELS 3 Xrotation Yrotation Zrotation
							End Site
							{
								OFFSET 0.000000 17.447403 0.000000
							}
						}
					}
				}
				JOINT LeftShoulder
				{
					OFFSET 17.399500 24.608795 1.168800
					CHANNELS 3 Xrotation Yrotation Zrotation
					JOINT LeftArm
					{
						OFFSET 18.980635 5.765305 1.818600
						CHANNELS 3 Xrotation Yrotation Zrotation
						JOINT LeftForeArm
						{
							OFFSET 49.290169 0.000000 0.000000
							CHANNELS 3 Xrotation Yrotation Zrotation
							JOINT LeftHand
							{
								OFFSET 31.562012 0.000000 0.000000
								CHANNELS 3 Xrotation Yrotation Zrotation
								JOINT LeftHandThumb1
								{
									OFFSET 6.133995 -4.388519 7.076070
									CHANNELS 3 Xrotation Yrotation Zrotation
									JOINT LeftHandThumb2
									{
										OFFSET 6.037666 -3.485840 3.485847
										CHANNELS 3 Xrotation Yrotation Zrotation
										JOINT LeftHandThumb3
										{
											OFFSET 6.496506 -3.750763 3.750761
											CHANNELS 3 Xrotation Yrotation Zrotation
											JOINT LeftHandThumb4
											{
												OFFSET 5.616882 -3.242905 3.242910
												CHANNELS 3 Xrotation Yrotation Zrotation
												End Site
												{
													OFFSET -1.254608 7.132141 0.375429
												}
											}
										}
									}
								}
								JOINT LeftHandPinky1
								{
									OFFSET 18.920792 -0.453171 -11.426712
									CHANNELS 3 Xrotation Yrotation Zrotation
									JOINT LeftHandPinky2
									{
										OFFSET 4.919586 0.000000 0.000000
										CHANNELS 3 Xrotation Yrotation Zrotation
										JOINT LeftHandPinky3
										{
											OFFSET 5.233047 0.000000 0.000000
											CHANNELS 3 Xrotation Yrotation Zrotation
											JOINT LeftHandPinky4
											{
												OFFSET 5.571716 0.000000 0.000000
												CHANNELS 3 Xrotation Yrotation Zrotation
												End Site
												{
													OFFSET -3.459808 4.342407 -0.466164
												}
											}
										}
									}
								}
								JOINT LeftHandRing1
								{
									OFFSET 22.726120 -0.094986 -6.500475
									CHANNELS 3 Xrotation Yrotation Zrotation
									JOINT LeftHandRing2
									{
										OFFSET 6.408615 0.000000 0.000000
										CHANNELS 3 Xrotation Yrotation Zrotation
										JOINT LeftHandRing3
										{
											OFFSET 6.150223 0.000000 0.000000
											CHANNELS 3 Xrotation Yrotation Zrotation
											JOINT LeftHandRing4
											{
												OFFSET 6.145386 0.000000 0.000000
												CHANNELS 3 Xrotation Yrotation Zrotation
												End Site
												{
													OFFSET -3.671402 4.923981 -0.202372
												}
											}
										}
									}
								}
								JOINT LeftHandMiddle1
								{
									OFFSET 23.373947 0.000000 0.000001
									CHANNELS 3 Xrotation Yrotation Zrotation
									JOINT LeftHandMiddle2
									{
										OFFSET 6.996567 0.000000 0.000000
										CHANNELS 3 Xrotation Yrotation Zrotation
										JOINT LeftHandMiddle3
										{
											OFFSET 7.015945 0.000000 0.000000
											CHANNELS 3 Xrotation Yrotation Zrotation
											JOINT LeftHandMiddle4
											{
												OFFSET 7.721573 0.000000 0.000000
												CHANNELS 3 Xrotation Yrotation Zrotation
												End Site
												{
													OFFSET -4.651108 6.158463 0.251582
												}
											}
										}
									}
								}
								JOINT LeftHandIndex1
								{
									OFFSET 21.310577 -0.490082 6.209344
									CHANNELS 3 Xrotation Yrotation Zrotation
									JOINT LeftHandIndex2
									{
										OFFSET 7.536453 0.000000 0.000000
										CHANNELS 3 Xrotation Yrotation Zrotation
										JOINT LeftHandIndex3
										{
											OFFSET 7.512344 0.000000 0.000000
											CHANNELS 3 Xrotation Yrotation Zrotation
											JOINT LeftHandIndex4
											{
												OFFSET 10.212402 0.000000 0.000001
												CHANNELS 3 Xrotation Yrotation Zrotation
												End Site
												{
													OFFSET -5.180801 8.690506 1.388433
												}
											}
										}
									}
								}
							}
						}
					}
				}
				JOINT RightShoulder
				{
					OFFSET -17.399500 24.608795 1.168800
					CHANNELS 3 Xrotation Yrotation Zrotation
					JOINT RightArm
					{
						OFFSET -18.980635 5.765305 1.818600
						CHANNELS 3 Xrotation Yrotation Zrotation
						JOINT RightForeArm
						{
							OFFSET -49.290169 0.000000 0.000000
							CHANNELS 3 Xrotation Yrotation Zrotation
							JOINT RightHand
							{
								OFFSET -31.562012 0.000000 0.000000
								CHANNELS 3 Xrotation Yrotation Zrotation
								JOINT RightHandThumb1
								{
									OFFSET -6.133995 -4.388519 7.076070
									CHANNELS 3 Xrotation Yrotation Zrotation
									JOINT RightHandThumb2
									{
										OFFSET -6.037666 -3.485840 3.485847
										CHANNELS 3 Xrotation Yrotation Zrotation
										JOINT RightHandThumb3
										{
											OFFSET -6.496506 -3.750763 3.750761
											CHANNELS 3 Xrotation Yrotation Zrotation
											JOINT RightHandThumb4
											{
												OFFSET -5.616882 -3.242905 3.242910
												CHANNELS 3 Xrotation Yrotation Zrotation
												End Site
												{
													OFFSET 1.254608 7.132141 0.375429
												}
											}
										}
									}
								}
								JOINT RightHandIndex1
								{
									OFFSET -21.310577 -0.490082 6.209344
									CHANNELS 3 Xrotation Yrotation Zrotation
									JOINT RightHandIndex2
									{
										OFFSET -7.536453 0.000000 0.000000
										CHANNELS 3 Xrotation Yrotation Zrotation
										JOINT RightHandIndex3
										{
											OFFSET -7.512344 0.000000 0.000000
											CHANNELS 3 Xrotation Yrotation Zrotation
											JOINT RightHandIndex4
											{
												OFFSET -10.212402 0.000000 0.000001
												CHANNELS 3 Xrotation Yrotation Zrotation
												End Site
												{
													OFFSET 5.180801 8.690506 1.388433
												}
											}
										}
									}
								}
								JOINT RightHandMiddle1
								{
									OFFSET -23.373947 0.000000 0.000001
									CHANNELS 3 Xrotation Yrotation Zrotation
									JOINT RightHandMiddle2
									{
										OFFSET -6.996567 0.000000 0.000000
										CHANNELS 3 Xrotation Yrotation Zrotation
										JOINT RightHandMiddle3
										{
											OFFSET -7.015945 0.000000 0.000000
											CHANNELS 3 Xrotation Yrotation Zrotation
											JOINT RightHandMiddle4
											{
												OFFSET -7.721573 0.000000 0.000000
												CHANNELS 3 Xrotation Yrotation Zrotation
												End Site
												{
													OFFSET 4.651108 6.158463 0.251582
												}
											}
										}
									}
								}
								JOINT RightHandRing1
								{
									OFFSET -22.726120 -0.094986 -6.500475
									CHANNELS 3 Xrotation Yrotation Zrotation
									JOINT RightHandRing2
									{
										OFFSET -6.408615 0.000000 0.000000
										CHANNELS 3 Xrotation Yrotation Zrotation
										JOINT RightHandRing3
										{
											OFFSET -6.150223 0.000000 0.000000
											CHANNELS 3 Xrotation Yrotation Zrotation
											JOINT RightHandRing4
											{
												OFFSET -6.145386 0.000000 0.000000
												CHANNELS 3 Xrotation Yrotation Zrotation
												End Site
												{
													OFFSET 3.671402 4.923981 -0.202372
												}
											}
										}
									}
								}
								JOINT RightHandPinky1
								{
									OFFSET -18.920792 -0.453171 -11.426712
									CHANNELS 3 Xrotation Yrotation Zrotation
									JOINT RightHandPinky2
									{
										OFFSET -4.919586 0.000000 0.000000
										CHANNELS 3 Xrotation Yrotation Zrotation
										JOINT RightHandPinky3
										{
											OFFSET -5.233047 0.000000 0.000000
											CHANNELS 3 Xrotation Yrotation Zrotation
											JOINT RightHandPinky4
											{
												OFFSET -5.571716 0.000000 0.000000
												CHANNELS 3 Xrotation Yrotation Zrotation
												End Site
												{
													OFFSET 3.459808 4.342407 -0.466164
												}
											}
										}
									}
								}
							}
						}
					}
				}
			}
		}
	}
	JOINT LeftUpLeg
	{
		OFFSET 19.899099 -7.885101 -3.429500
		CHANNELS 3 Xrotation Yrotation Zrotation
		JOINT LeftLeg
		{
			OFFSET 1.745560 -36.997807 10.304700
			CHANNELS 3 Xrotation Yrotation Zrotation
			JOINT LeftFoot
			{
				OFFSET -1.745558 -29.803308 -13.615400
				CHANNELS 3 Xrotation Yrotation Zrotation
				JOINT LeftToeBase
				{
					OFFSET 1.181900 -18.539904 15.226099
					CHANNELS 3 Xrotation Yrotation Zrotation
					JOINT LeftToe_End
					{
						OFFSET -0.863701 1.402801 16.534700
						CHANNELS 3 Xrotation Yrotation Zrotation
						End Site
						{
							OFFSET 0.000000 16.616566 0.000000
						}
					}
				}
			}
		}
	}
	JOINT RightUpLeg
	{
		OFFSET -19.899099 -7.885101 -3.429500
		CHANNELS 3 Xrotation Yrotation Zrotation
		JOINT RightLeg
		{
			OFFSET -1.745560 -36.997807 10.304700
			CHANNELS 3 Xrotation Yrotation Zrotation
			JOINT RightFoot
			{
				OFFSET 1.745558 -29.803308 -13.615400
				CHANNELS 3 Xrotation Yrotation Zrotation
				JOINT RightToeBase
				{
					OFFSET -1.181900 -18.539904 15.226099
					CHANNELS 3 Xrotation Yrotation Zrotation
					JOINT RightToe_End
					{
						OFFSET 0.863701 1.402801 16.534700
						CHANNELS 3 Xrotation Yrotation Zrotation
						End Site
						{
							OFFSET 0.000000 16.616566 0.000000
						}
					}
				}
			}
		}
	}
}
MOTION
Frames: 4
Frame Time: 0.033333
-10.580832 92.822952 22.836046 -159.298781 -70.746813 -157.763095 5.993396 3.187250 9.175270 -1.093086 1.509663 -1.891328 -0.867429 1.586706 -1.909811 6.986522 36.592066 -5.798554 -6.772089 37.478047 3.688383 -0.000000 0.000002 -0.000000 2.078203 3.463777 -4.441156 -3.493375 13.130198 -66.522108 10.447683 -11.570124 -1.219033 -0.593687 4.201336 4.152341 10.499467 -5.912057 20.379449 -8.863504 17.879338 -6.744961 -10.223051 -4.584621 -4.439090 -0.000000 0.000002 -0.000003 -4.092593 16.432120 -16.317151 9.785352 2.602325 -28.474811 5.876592 2.863902 -10.067350 0.000001 0.000002 -0.000004 -4.414327 10.377470 -6.185545 3.578698 3.831828 -28.626248 1.923260 2.895495 -12.512975 -0.000000 0.000000 0.000003 -2.492399 1.397401 -7.653627 0.124914 4.671116 -21.444747 -0.603952 1.017894 -7.422331 0.000000 0.000000 0.000008 2.195420 -4.518757 -0.920553 -1.999714 2.219374 -10.495731 -1.766948 4.430308 -6.477782 -0.000000 0.000001 0.000003 2.287898 7.225033 0.672340 -1.898881 -8.827887 71.255020 -3.347709 10.123990 -1.884262 -0.140732 0.529472 -6.745729 3.261515 1.201722 2.473879 3.262412 -19.098800 -6.363303 0.104999 -9.764817 -5.962499 -0.000002 -0.000003 0.000002 0.053288 2.607728 -6.217577 0.466362 -2.854403 24.311567 -0.271873 -2.885737 3.082147 -0.000001 -0.000001 -0.000001 0.518710 -6.875397 21.763715 1.486362 -5.856652 33.458320 0.210781 -1.434749 13.666747 0.000001 0.000000 -0.000001 2.056625 -12.034966 28.669849 2.839950 -5.786319 43.113428 1.697972 -5.917522 33.347384 0.000000 0.000002 -0.000007 1.610445 -24.607426 44.980344 4.229266 -5.994961 49.506222 2.292529 -6.120858 35.886616 0.000000 -0.000001 0.000004 -10.294086 14.965718 1.588002 29.342602 -24.772382 0.207620 13.185958 1.608299 5.098292 -30.887738 0.220416 -2.176690 -0.000000 -0.000001 -0.000000 -17.011339 18.081608 6.101899 35.732814 10.349900 -0.875555 32.389078 -9.455052 -7.458183 -44.174979 0.403369 9.362795 -0.000000 0.000001 -0.000000 
-10.767987 92.203575 23.259842 -164.039642 -66.275511 -161.891111 6.004655 3.264115 8.502374 -0.940434 1.614195 -1.781800 -0.716647 1.685231 -1.799404 7.167411 37.381711 -6.781373 -7.092435 38.147962 3.865791 0.000000 0.000001 -0.000000 2.054451 3.418170 -4.699525 -4.841515 12.468993 -64.326257 7.112327 -12.258548 -2.039296 -0.533757 3.449255 6.861754 10.488853 -6.155331 20.531933 -9.199800 17.480901 -6.812608 -10.478764 -4.996227 -4.587035 0.000001 0.000002 -0.000003 -4.087442 16.611276 -16.214717 9.834286 2.605038 -28.309821 5.904113 2.877504 -9.843074 -0.000001 0.000004 -0.000005 -4.441608 10.359875 -6.091239 3.599785 3.845761 -28.534013 1.931499 2.909389 -12.339816 0.000001 0.000000 0.000003 -2.509928 1.244410 -7.512247 0.129508 4.693086 -21.281995 -0.606967 1.022406 -7.194210 -0.000000 -0.000000 -0.000003 2.260072 -4.780154 -0.686945 -2.008657 2.230210 -10.176598 -1.775004 4.451243 -6.148150 -0.000001 0.000001 0.000002 2.253788 7.565408 0.504446 -1.589614 -9.275158 71.232275 -1.980171 10.453184 -2.430954 -0.120536 0.301924 -6.437242 2.834532 1.124365 3.285893 3.479276 -18.821227 -6.931825 0.355758 -10.039683 -6.275048 0.000001 0.000000 0.000005 0.028732 2.837241 -6.692827 0.558742 -2.858629 24.530539 -0.202424 -2.829185 2.710325 -0.000001 -0.000003 -0.000001 0.611869 -6.903322 22.074120 1.532489 -5.878110 33.709681 0.246502 -1.442842 13.761403 0.000001 0.000000 -0.000001 2.352290 -12.007848 29.324239 2.810268 -5.854241 43.471306 1.716229 -6.017899 33.979648 0.000001 -0.000003 0.000002 2.075630 -24.975818 45.828329 4.038681 -6.177825 50.043830 2.191268 -6.281885 36.628877 -0.000000 0.000002 -0.000001 -9.261655 20.055614 2.157575 30.057699 -22.638594 0.000456 11.253578 -0.857377 6.505370 -30.760331 0.151638 -2.048779 0.000000 0.000001 -0.000000 -18.668840 16.572667 3.694058 37.739049 5.675165 -1.114780 32.668566 -8.489271 -7.826902 -44.470108 -0.074499 10.996021 0.000000 0.000000 -0.000000 
-10.935457 91.569328 23.601339 -167.222483 -62.060683 -164.427392 6.183908 3.157711 7.741031 -1.035120 1.575661 -1.746658 -0.822275 1.648584 -1.769771 6.981662 37.958828 -6.863760 -7.055835 38.848924 3.565564 -0.000000 -0.000001 -0.000000 1.994898 3.314845 -4.465173 -5.592336 12.001231 -62.755717 5.253026 -12.565968 -2.472609 -0.367389 1.746035 8.321584 10.479026 -6.379674 20.672399 -9.509835 17.113141 -6.877814 -10.715971 -5.375968 -4.725709 0.000002 0.000001 0.000001 -4.083161 16.777002 -16.119240 9.879354 2.607767 -28.156994 5.929370 2.890253 -9.635588 -0.000000 -0.000002 -0.000001 -4.466670 10.343573 -6.003520 3.619187 3.858646 -28.448163 1.938986 2.922234 -12.179476 -0.000001 -0.000001 0.000003 -2.525408 1.102848 -7.381067 0.133604 4.713355 -21.131080 -0.609879 1.026523 -6.983098 -0.000000 0.000000 0.000002 2.321692 -5.021519 -0.470219 -2.017008 2.240152 -9.881434 -1.782514 4.470439 -5.843304 -0.000000 0.000004 0.000004 2.202954 7.877331 0.582384 -1.164442 -9.836054 71.422469 -0.528642 10.767501 -3.037352 -0.091091 0.096781 -6.608255 2.486638 1.050170 3.958787 3.659442 -18.598351 -7.403880 0.563066 -10.267979 -6.532551 -0.000000 -0.000001 -0.000000 0.009947 3.027142 -7.084523 0.635035 -2.861308 24.711404 -0.144520 -2.783107 2.403494 -0.000002 0.000001 -0.000003 0.689085 -6.925583 22.330597 1.570665 -5.895522 33.917353 0.276183 -1.449089 13.839719 0.000000 0.000001 -0.000001 2.597274 -11.980307 29.864732 2.786416 -5.910637 43.766787 1.730887 -6.100830 34.501471 -0.000000 0.000000 -0.000005 2.469189 -25.273045 46.532105 3.883522 -6.331702 50.487563 2.110340 -6.417186 37.241589 0.000001 -0.000002 0.000005 -8.081778 23.990496 2.140561 30.742528 -21.094742 -0.022551 9.181192 -2.109589 7.176496 -30.626076 0.083052 -1.916872 -0.000000 -0.000002 0.000000 -20.429323 15.419939 1.334745 39.753777 0.560723 -1.334337 32.902339 -7.583911 -7.679762 -44.513907 -0.481867 12.411868 -0.000000 -0.000000 -0.000000 
-11.141267 91.105995 23.828377 -169.381001 -58.110724 -166.031831 6.221998 2.950469 7.001024 -1.034915 1.479315 -1.745472 -0.836529 1.550417 -1.765925 6.254116 38.207296 -6.421907 -6.861378 39.209524 3.333793 -0.000001 -0.000001 -0.000000 1.934540 3.038351 -4.096133 -6.103331 12.149663 -61.747369 5.158486 -13.338652 -2.135682 -0.260550 0.789594 8.153285 10.470035 -6.582856 20.799470 -9.790572 16.779669 -6.939237 -10.932024 -5.720029 -4.853092 0.000000 -0.000000 -0.000004 -4.079697 16.927497 -16.031969 9.920137 2.610459 -28.017958 5.952147 2.901966 -9.447109 -0.000000 0.000001 -0.000004 -4.489339 10.328782 -5.923453 3.636683 3.870392 -28.369831 1.945698 2.933898 -12.033636 -0.000000 -0.000001 0.000005 -2.538853 0.974240 -7.261621 0.137235 4.731702 -20.993708 -0.612422 1.030252 -6.791195 -0.000000 0.000000 0.000004 2.379212 -5.240379 -0.272814 -2.024685 2.249106 -9.613399 -1.789434 4.487800 -5.566484 -0.000001 0.000001 0.000001 2.114786 7.831509 0.869789 -0.796854 -10.117597 71.661600 1.143790 10.842171 -3.575401 -0.064782 -0.272287 -6.787147 2.222684 0.986772 4.476437 3.798224 -18.431353 -7.767637 0.722156 -10.443888 -6.729731 0.000003 0.000001 0.000003 -0.003745 3.172924 -7.384404 0.693532 -2.863021 24.850177 -0.099784 -2.748191 2.168364 -0.000002 0.000000 -0.000001 0.748404 -6.942235 22.527378 1.600062 -5.908682 34.076671 0.299026 -1.453910 13.899863 -0.000000 0.000000 -0.000001 2.785639 -11.956047 30.279291 2.768488 -5.954092 43.993365 1.741554 -6.164446 34.901461 -0.000000 0.000001 -0.000005 2.776630 -25.496685 47.073985 3.765943 -6.451485 50.827761 2.049972 -6.522338 37.711394 0.000002 0.000000 0.000000 -6.405578 25.652531 1.779273 30.746209 -18.595330 -0.361563 7.165617 -2.698249 6.867710 -30.485033 0.015282 -1.781857 -0.000000 -0.000002 -0.000000 -21.902376 14.419084 -0.737024 41.299511 -4.480946 -1.549283 33.392747 -6.923509 -7.483683 -44.384171 -0.832069 13.745329 -0.000000 -0.000001 -0.000000 
